# MagicaVoxel @ Ephtracy

# group
o 

# material
mtllib hamer.mtl
usemtl palette

# normals
vn -1 0 0
vn 1 0 0
vn 0 0 1
vn 0 0 -1
vn 0 -1 0
vn 0 1 0

# texcoords
vt 0.970703 0.5
vt 0.986328 0.5

# verts
v -0.0999999 2.3 -5.96046e-008
v -0.0999999 2.3 -0.5
v -0.0999999 2.7 -5.96046e-008
v -0.0999999 2.7 -0.5
v 7.45058e-008 0 0.3
v 7.45058e-008 0 -5.96046e-008
v 7.45058e-008 2.3 -5.96046e-008
v 7.45058e-008 2.4 0.8
v 7.45058e-008 2.4 0.3
v 7.45058e-008 2.4 -5.96046e-008
v 7.45058e-008 2.6 0.8
v 7.45058e-008 2.6 0.3
v 7.45058e-008 2.6 -5.96046e-008
v 7.45058e-008 2.7 0.3
v 7.45058e-008 2.7 -5.96046e-008
v 0.2 0 0.3
v 0.2 0 -5.96046e-008
v 0.2 2.3 -5.96046e-008
v 0.2 2.4 0.8
v 0.2 2.4 0.3
v 0.2 2.4 -5.96046e-008
v 0.2 2.6 0.8
v 0.2 2.6 0.3
v 0.2 2.6 -5.96046e-008
v 0.2 2.7 0.3
v 0.2 2.7 -5.96046e-008
v 0.3 2.3 -5.96046e-008
v 0.3 2.3 -0.5
v 0.3 2.7 -5.96046e-008
v 0.3 2.7 -0.5
v 7.45058e-008 2.4 0.8
v 7.45058e-008 2.6 0.8
v 0.2 2.4 0.8
v 0.2 2.6 0.8
v 7.45058e-008 0 0.3
v 7.45058e-008 2.4 0.3
v 7.45058e-008 2.6 0.3
v 7.45058e-008 2.7 0.3
v 0.2 0 0.3
v 0.2 2.4 0.3
v 0.2 2.6 0.3
v 0.2 2.7 0.3
v -0.0999999 2.3 -5.96046e-008
v -0.0999999 2.7 -5.96046e-008
v 7.45058e-008 2.3 -5.96046e-008
v 7.45058e-008 2.4 -5.96046e-008
v 7.45058e-008 2.6 -5.96046e-008
v 7.45058e-008 2.7 -5.96046e-008
v 0.2 2.3 -5.96046e-008
v 0.2 2.4 -5.96046e-008
v 0.2 2.6 -5.96046e-008
v 0.2 2.7 -5.96046e-008
v 0.3 2.3 -5.96046e-008
v 0.3 2.7 -5.96046e-008
v 7.45058e-008 0 -5.96046e-008
v 7.45058e-008 2.3 -5.96046e-008
v 0.2 0 -5.96046e-008
v 0.2 2.3 -5.96046e-008
v -0.0999999 2.3 -0.5
v -0.0999999 2.7 -0.5
v 0.3 2.3 -0.5
v 0.3 2.7 -0.5
v 7.45058e-008 0 0.3
v 0.2 0 0.3
v 7.45058e-008 0 -5.96046e-008
v 0.2 0 -5.96046e-008
v -0.0999999 2.3 -5.96046e-008
v 7.45058e-008 2.3 -5.96046e-008
v 0.2 2.3 -5.96046e-008
v 0.3 2.3 -5.96046e-008
v -0.0999999 2.3 -0.5
v 0.3 2.3 -0.5
v 7.45058e-008 2.4 0.8
v 0.2 2.4 0.8
v 7.45058e-008 2.4 0.3
v 0.2 2.4 0.3
v 7.45058e-008 2.6 0.8
v 0.2 2.6 0.8
v 7.45058e-008 2.6 0.3
v 0.2 2.6 0.3
v 7.45058e-008 2.7 0.3
v 0.2 2.7 0.3
v -0.0999999 2.7 -5.96046e-008
v 7.45058e-008 2.7 -5.96046e-008
v 0.2 2.7 -5.96046e-008
v 0.3 2.7 -5.96046e-008
v -0.0999999 2.7 -0.5
v 0.3 2.7 -0.5

# faces
f 3/2/1 2/2/1 1/2/1
f 4/2/1 2/2/1 3/2/1
f 7/1/1 6/1/1 5/1/1
f 9/1/1 7/1/1 5/1/1
f 10/1/1 7/1/1 9/1/1
f 11/2/1 9/2/1 8/2/1
f 11/2/1 10/2/1 9/2/1
f 12/2/1 10/2/1 11/2/1
f 13/2/1 10/2/1 12/2/1
f 14/1/1 13/1/1 12/1/1
f 15/1/1 13/1/1 14/1/1
f 16/1/2 17/1/2 18/1/2
f 16/1/2 18/1/2 20/1/2
f 20/1/2 18/1/2 21/1/2
f 19/2/2 20/2/2 22/2/2
f 20/2/2 21/2/2 22/2/2
f 22/2/2 21/2/2 23/2/2
f 23/2/2 21/2/2 24/2/2
f 23/1/2 24/1/2 25/1/2
f 25/1/2 24/1/2 26/1/2
f 27/2/2 28/2/2 29/2/2
f 29/2/2 28/2/2 30/2/2
f 33/2/3 32/2/3 31/2/3
f 34/2/3 32/2/3 33/2/3
f 39/1/3 36/1/3 35/1/3
f 40/1/3 36/1/3 39/1/3
f 41/1/3 38/1/3 37/1/3
f 42/1/3 38/1/3 41/1/3
f 45/2/3 44/2/3 43/2/3
f 46/2/3 44/2/3 45/2/3
f 47/2/3 44/2/3 46/2/3
f 48/2/3 44/2/3 47/2/3
f 53/2/3 50/2/3 49/2/3
f 53/2/3 52/2/3 51/2/3
f 53/2/3 51/2/3 50/2/3
f 54/2/3 52/2/3 53/2/3
f 55/1/4 56/1/4 57/1/4
f 57/1/4 56/1/4 58/1/4
f 59/2/4 60/2/4 61/2/4
f 61/2/4 60/2/4 62/2/4
f 65/1/5 64/1/5 63/1/5
f 66/1/5 64/1/5 65/1/5
f 71/2/5 68/2/5 67/2/5
f 71/2/5 70/2/5 69/2/5
f 71/2/5 69/2/5 68/2/5
f 72/2/5 70/2/5 71/2/5
f 75/2/5 74/2/5 73/2/5
f 76/2/5 74/2/5 75/2/5
f 77/2/6 78/2/6 79/2/6
f 79/2/6 78/2/6 80/2/6
f 81/1/6 82/1/6 84/1/6
f 84/1/6 82/1/6 85/1/6
f 83/2/6 84/2/6 87/2/6
f 85/2/6 86/2/6 87/2/6
f 84/2/6 85/2/6 87/2/6
f 87/2/6 86/2/6 88/2/6
